<?xml version="1.0" encoding="utf-8"?>
<!-- Generator: Adobe Illustrator 16.0.0, SVG Export Plug-In . SVG Version: 6.00 Build 0)  -->
<!DOCTYPE svg PUBLIC "-//W3C//DTD SVG 1.0//EN" "http://www.w3.org/TR/2001/REC-SVG-20010904/DTD/svg10.dtd">
<svg version="1.0" id="Layer_1" xmlns="http://www.w3.org/2000/svg" xmlns:xlink="http://www.w3.org/1999/xlink" x="0px" y="0px"
	 width="100px" height="100px" viewBox="0 0 100 100" enable-background="new 0 0 100 100" xml:space="preserve">
<polygon fill="#FFCA28" points="60,46.667 47.779,46.667 40,70 50,70 43.333,90 63.334,63.333 53.334,63.333 "/>
<polygon fill="#29B6F6" points="14.447,76.667 10,90 17.028,90 21.474,76.667 "/>
<polygon fill="#29B6F6" points="29.638,76.667 25.195,90 32.223,90 36.667,76.667 "/>
<polygon fill="#29B6F6" points="64.445,76.667 60,90 67.031,90 71.473,76.667 "/>
<polygon fill="#29B6F6" points="79.643,76.667 75.195,90 82.221,90 86.667,76.667 "/>
<path fill="#FFCA28" d="M18.966,44.068c1.368-0.474,2.837-0.735,4.367-0.735h4.206c0.298-1.153,0.673-2.274,1.115-3.362
	c-0.108,0.006-0.211,0.03-0.32,0.03c-6.438,0-11.668-5.225-11.668-11.667c0-6.441,5.229-11.667,11.668-11.667
	c5.983,0,10.861,4.524,11.534,10.325c1.966-1.156,4.093-2.066,6.34-2.69C44.37,16.121,37.076,10,28.334,10
	C18.209,10,10,18.21,10,28.333C10,35.031,13.606,40.872,18.966,44.068z"/>
<path fill="#29B6F6" d="M73.333,36.666c-3.263-7.832-10.985-13.333-20-13.333c-12.421,0-22.825,8.501-25.794,20h-4.206
	C15.971,43.333,10,49.303,10,56.666S15.971,70,23.333,70h10v-6.668h-10c-3.679,0-6.667-2.994-6.667-6.668
	c0-3.678,2.988-6.666,6.667-6.666h10c0-11.048,8.955-20,20-20c7.702,0,13.991,5.854,14.831,13.332h5.169c5.515,0,10,4.487,10,10
	c0,5.518-4.485,10.002-10,10.002H70V70h3.333C82.539,70,90,62.539,90,53.332C90,44.127,82.539,36.666,73.333,36.666z"/>
</svg>
